# xmcd
#
# Track frame offsets: 
#        150
#        19732
#        38290
#        55738
#        72260
#        90702
#        106510
#        123816
#        141522
#        162864
#
# Disc length: 2402 seconds
#
# Revision: 1
# Processed by: cddbd v1.5.2PL0 Copyright (c) Steve Scherf et al.
# Submitted via: ExactAudioCopy v1.0b3
#
DISCID=7409600a
DTITLE=Penny McLean - Midnight Explosion
DYEAR=1978
DGENRE=Europop, Disco
TTITLE0=Midnight Explosion (Michael Kunze)
TTITLE1=Circle Of Flames (Michael Kunze)
TTITLE2=Dancing With The Night Tribe (James Cobas-Michael Kunze)
TTITLE3=I Need A Friend (Michael Kunze-Ralf Nowy)
TTITLE4=Boogie Heaven (Michael Kunze)
TTITLE5=Hypnotic Love (Michael Kunze-Ralf Nowy)
TTITLE6=Kidnapped-Hijacked (Keith Forsey-Mats Björklund)
TTITLE7=Backstreet Angel (Christian Bruhn-Michael Kunze)
TTITLE8=Monkey, Monkey (Michael Kunze)
TTITLE9=Don't Say Goodbye, My Love (Keith Forsey-Mats Björklund)
EXTD=YEAR: 1978
EXTT0=
EXTT1=
EXTT2=
EXTT3=
EXTT4=
EXTT5=
EXTT6=
EXTT7=
EXTT8=
EXTT9=
PLAYORDER=
